DBRep_DrawableShape

CASCADE Topology V1, (c) Matra-Datavision
Locations 38
1
              1               0               0               0 
              0               1               0               0 
              0               0               1               0 
1
             -1               0               0          -4e-15 
              0               1               0               0 
              0               0              -1          40.631 
1
              1               0               0               0 
              0               1               0               0 
              0               0               1               0 
1
              1               0               0               0 
              0               1               0               0 
              0               0               1               0 
2  3 1 4 1 0
1
              1               0               0               0 
              0               1               0               0 
              0               0               1               0 
1
              1               0               0               0 
              0               1               0               0 
              0               0               1              21 
2  6 1 7 1 3 1 4 1 0
2  7 -1 6 -1 0
1
              1               0               0               0 
              0               1               0               0 
              0               0               1              10 
2  10 -1 7 -1 6 -1 0
2  4 -1 3 -1 7 -1 6 -1 0
2  2 -1 4 -1 3 -1 7 -1 6 -1 0
2  2 -1 0
2  3 1 4 1 2 1 0
1
             -1               0               0          -4e-15 
              0               1               0               0 
              0               0              -1          40.631 
2  3 1 4 1 16 1 0
1
              1               0               0               0 
              0               1               0               0 
              0               0               1               0 
1
              1               0               0               0 
              0               1               0               0 
              0               0               1               0 
2  18 1 19 1 0
1
             -1               0               0          -4e-15 
              0               1               0               0 
              0               0              -1          40.631 
2  3 1 4 1 21 1 0
2  21 -1 4 -1 3 -1 7 -1 6 -1 0
2  21 -1 0
1
             -1               0               0          -4e-15 
              0               1               0               0 
              0               0              -1          40.631 
2  3 1 4 1 25 1 0
2  25 -1 4 -1 3 -1 7 -1 6 -1 0
2  25 -1 0
1
             -1               0               0          -4e-15 
              0               1               0               0 
              0               0              -1          40.631 
2  3 1 4 1 29 1 0
2  29 -1 4 -1 3 -1 7 -1 6 -1 0
2  29 -1 0
1
             -1               0               0          -4e-15 
              0               1               0               0 
              0               0              -1          40.631 
2  3 1 4 1 33 1 0
2  33 -1 4 -1 3 -1 7 -1 6 -1 0
2  33 -1 0
2  16 -1 4 -1 3 -1 7 -1 6 -1 0
2  16 -1 0
Curve2ds 42
1 9 -5.1961524227066329 0 1 
1 0 0 1 0 
1 0 -10 1 0 
1 10.392304845413264 0 0 -1 
1 0 0 0 -1 
8 -8.8334591186012741 3.6373066958946425
1 8.9999999999999982 -2.5980762113533205 -4.8000000000000001e-16 -1 
8 -8.8334591186012741 3.6373066958946425
1 2.598076211353316 -4.9999999999999964 -1 0 
1 0 0 0 -1 
1 10.392304845413264 0 0 -1 
1 0 0 1 0 
1 0 -10 1 0 
1 0 -10.392304845413264 0.86602540378443871 0.50000000000000011 
8 -8.8334591186012741 3.6373066958946429
1 2.249999999999996 -9.0932667397366078 -0.86602540378443893 -0.49999999999999967 
8 -8.8334591186012741 3.6373066958946429
1 2.5980762113533165 -4.9999999999999964 -1 -0 
1 0 0 0 -1 
1 10.392304845413264 0 0 -1 
1 0 0 1 0 
1 0 -10 1 0 
1 -9 -5.1961524227066329 0.86602540378443871 -0.50000000000000011 
8 -8.8334591186012741 3.6373066958946425
1 -6.7500000000000036 -6.4951905283832865 -0.86602540378443849 0.50000000000000056 
8 -8.8334591186012741 3.6373066958946425
1 2.598076211353316 -4.9999999999999964 -1 0 
1 0 0 0 -1 
1 10.392304845413264 0 0 -1 
1 -9 5.1961524227066311 0 -1 
1 0 0 1 0 
1 0 -10 1 0 
8 -8.8334591186012741 3.6373066958946425
1 -8.9999999999999982 2.5980762113533205 4.8000000000000001e-16 1 
8 -8.8334591186012741 3.6373066958946425
1 2.598076211353316 -4.9999999999999964 -1 0 
1 0 0 0 -1 
1 10.392304845413264 -0 0 -1 
1 0 0 1 -0 
1 0 -10 1 -0 
1 0 10.392304845413264 -0.86602540378443871 -0.50000000000000011 
8 -8.8334591186012741 3.6373066958946429
1 -2.249999999999996 9.0932667397366078 0.86602540378443893 0.49999999999999967 
8 -8.8334591186012741 3.6373066958946429
1 2.5980762113533165 -4.9999999999999964 -1 0 
1 0 0 0 -1 
1 10.392304845413264 0 0 -1 
1 0 0 1 0 
1 0 -10 1 0 
1 9 5.1961524227066311 -0.86602540378443871 0.50000000000000011 
8 -8.8334591186012741 3.6373066958946425
1 6.7500000000000036 6.4951905283832865 0.86602540378443849 -0.50000000000000056 
8 -8.8334591186012741 3.6373066958946425
1 2.598076211353316 -4.9999999999999964 -1 0 
Curves 18
1 9 -5.196152422706632 0 0 1 0 
1 -9.0000000000000036 5.196152422706632 19.631 0 0 -1 
1 9 -2.598076211353316 25.999999999999996 0 -1 0 
1 -9.0000000000000036 -5.196152422706632 19.631 0 0 -1 
1 0 -10.392304845413264 0 0.86602540378443871 0.50000000000000011 0 
1 2.2500000000000004 -9.093266739736606 25.999999999999996 -0.86602540378443871 -0.50000000000000011 0 
1 -4.0000000000000003e-15 -10.392304845413264 19.631 0 0 -1 
1 -9 -5.196152422706632 0 0.86602540378443871 -0.50000000000000011 0 
1 -6.75 -6.49519052838329 25.999999999999996 -0.86602540378443871 0.50000000000000011 0 
1 8.9999999999999964 -5.196152422706632 19.631 0 0 -1 
1 -9 5.196152422706632 0 0 -1 0 
1 -9 2.598076211353316 25.999999999999996 0 1 0 
1 8.9999999999999964 5.196152422706632 19.631 0 0 -1 
1 0 10.392304845413264 0 -0.86602540378443871 -0.50000000000000011 0 
1 -2.2500000000000004 9.093266739736606 25.999999999999996 0.86602540378443871 0.50000000000000011 -0 
1 -4.0000000000000003e-15 10.392304845413264 19.631 0 0 -1 
1 9 5.196152422706632 0 -0.86602540378443871 0.50000000000000011 0 
1 6.75 6.49519052838329 25.999999999999996 0.86602540378443871 -0.50000000000000011 0 
Polygon3D 0
PolygonOnTriangulations 24
2 1 2 
p 0.0729743494847109 1 0 10.3923048454133 
2 2 3 
p 0.0729743494847109 1 0 5 
2 1 4 
p 0.0729743494847109 1 0 5 
2 3 4 
p 0.0729743494847109 1 -7.79422863405995 2.59807621135332 
2 1 4 
p 0.0729743494847109 1 0 5 
2 2 3 
p 0.0729743494847109 1 0 5 
2 1 2 
p 0.0729743494847109 1 0 10.3923048454133 
2 3 4 
p 0.0729743494847109 1 -7.79422863405995 2.59807621135332 
2 1 4 
p 0.0729743494847109 1 0 5 
2 2 3 
p 0.0729743494847109 1 0 5 
2 1 2 
p 0.0729743494847109 1 0 10.3923048454133 
2 3 4 
p 0.0729743494847109 1 -7.79422863405995 2.59807621135332 
2 1 4 
p 0.0729743494847109 1 0 5 
2 2 3 
p 0.0729743494847109 1 0 5 
2 1 2 
p 0.0729743494847109 1 0 10.3923048454133 
2 3 4 
p 0.0729743494847109 1 -7.79422863405995 2.59807621135332 
2 1 4 
p 0.0729743494847109 1 0 5 
2 2 3 
p 0.0729743494847109 1 0 5 
2 1 2 
p 0.0729743494847109 1 0 10.3923048454133 
2 3 4 
p 0.0729743494847109 1 -7.79422863405995 2.59807621135332 
2 1 4 
p 0.0729743494847109 1 0 5 
2 2 3 
p 0.0729743494847109 1 0 5 
2 1 2 
p 0.0729743494847109 1 0 10.3923048454133 
2 3 4 
p 0.0729743494847109 1 -7.79422863405995 2.59807621135332 
Surfaces 8
1 9 -5.196152422706632 21 -1 0 0 0 1 0 0 0 -1 
1 0 8.5000000000000001e-16 21 0 0 1 1 0 -0 -0 1 0 
1 9 5.196152422706632 21 -0.50000000000000011 -0.86602540378443871 0 -0.86602540378443871 0.50000000000000011 0 -0 0 -1 
1 0 0 25.999999999999996 0 0 1 1 4.8000000000000001e-16 -0 -4.8000000000000001e-16 1 0 
1 0 -10.392304845413264 21 -0.50000000000000011 0.86602540378443871 0 0.86602540378443871 0.50000000000000011 0 0 0 -1 
1 -9 -5.196152422706632 21 0.50000000000000011 0.86602540378443871 -0 0.86602540378443871 -0.50000000000000011 0 0 -0 -1 
1 -9 5.196152422706632 21 1 0 -0 0 -1 0 0 -0 -1 
1 0 10.392304845413264 21 0.50000000000000011 -0.86602540378443871 0 -0.86602540378443871 -0.50000000000000011 0 0 -0 -1 
Triangulations 6
4 2 1 1.77635683940025e-15
9 -5.19615242270663 21 9 5.19615242270663 21 9 5.19615242270663 26 9 -5.19615242270663 26 0 0 10.3923048454133 0 10.3923048454133 -5 0 -5 2 4 3 2 1 4 
4 2 1 1.60118641699469e-15
9 5.19615242270663 21 0 10.3923048454133 21 0 10.3923048454133 26 9 5.19615242270663 26 0 0 10.3923048454133 0 10.3923048454133 -5 0 -5 2 4 3 2 1 4 
4 2 1 2.03507241945104e-15
0 -10.3923048454133 21 9 -5.19615242270663 21 9 -5.19615242270663 26 0 -10.3923048454133 26 0 0 10.3923048454133 0 10.3923048454133 -5 4.44089209850063e-16 -5 2 4 3 2 1 4 
4 2 1 1.60118641699469e-15
-9 -5.19615242270663 21 0 -10.3923048454133 21 0 -10.3923048454133 26 -9 -5.19615242270663 26 0 0 10.3923048454133 0 10.3923048454133 -5 0 -5 2 4 3 2 1 4 
4 2 1 1.77635683940025e-15
-9 5.19615242270663 21 -9 -5.19615242270663 21 -9 -5.19615242270663 26 -9 5.19615242270663 26 0 0 10.3923048454133 0 10.3923048454133 -5 0 -5 2 4 3 2 1 4 
4 2 1 1.48952049194836e-15
0 10.3923048454133 21 -9 5.19615242270663 21 -9 5.19615242270663 26 0 10.3923048454133 26 0 0 10.3923048454133 0 10.3923048454133 -5 4.44089209850063e-16 -5 2 4 3 2 1 4 

TShapes 44
Ve
1e-07
-9 -5.19615242270663 19.631
0 0

0101101
*
Ve
1e-07
-9 5.19615242270663 19.631
0 0

0101101
*
Ed
 1e-07 1 1 0
1  1 0 0 10.3923048454133
2  1 2 9 0 10.3923048454133
2  2 1 9 0 10.3923048454133
2  3 1 11 0 10.3923048454133
6  1 1 12
0

0101000
+44 13 -43 13 *
Ve
2.00001e-07
-9 5.19615242270663 14.631
0 0

0101101
*
Ed
 1e-07 1 1 0
1  2 0 0 5
2  4 1 15 0 5
2  5 3 17 0 5
6  2 1 2
6  3 2 16
0

0101000
+43 0 -41 0 *
Ve
2.00001e-07
-9 -5.19615242270663 14.631
0 0

0101101
*
Ed
 1e-07 1 1 0
1  3 0 -7.79422863405995 2.59807621135332
2  6 4 20 -7.79422863405995 2.59807621135332
2  7 1 5 -7.79422863405995 2.59807621135332
6  4 1 0
0

0101000
+41 14 -39 14 *
Ed
 1e-07 1 1 0
1  4 0 0 5
2  8 1 15 0 5
2  9 5 22 0 5
6  5 1 2
6  6 3 21
0

0101000
+44 0 -39 0 *
Wi

0101100
-42 8 -40 14 -38 0 +37 14 *
Fa
0  1e-07 1 5
2  1
0101000
+36 0 *
Ve
1e-07
-4e-15 -10.3923048454133 19.631
0 0

0101101
*
Ed
 1e-07 1 1 0
1  5 0 0 10.3923048454133
2  10 5 9 0 10.3923048454133
2  11 5 11 0 10.3923048454133
2  12 2 9 0 10.3923048454133
6  7 3 12
0

0101000
+34 23 -44 23 *
Ve
2.00001e-07
-4e-15 -10.3923048454133 14.631
0 0

0101101
*
Ed
 1e-07 1 1 0
1  6 0 -7.79422863405995 2.59807621135332
2  13 4 20 -7.79422863405995 2.59807621135332
2  14 5 5 -7.79422863405995 2.59807621135332
6  8 3 0
0

0101000
+39 24 -32 24 *
Ed
 1e-07 1 1 0
1  7 0 0 5
2  15 5 22 0 5
2  16 6 26 0 5
6  9 3 21
6  10 4 25
0

0101000
+34 0 -32 0 *
Wi

0101100
-33 8 -37 24 -31 0 +30 24 *
Fa
0  1e-07 5 5
2  3
0101000
+29 0 *
Ve
1e-07
9 -5.19615242270663 19.631
0 0

0101101
*
Ed
 1e-07 1 1 0
1  8 0 0 10.3923048454133
2  17 6 9 0 10.3923048454133
2  18 6 11 0 10.3923048454133
2  19 2 9 0 10.3923048454133
6  11 4 12
0

0101000
+27 27 -34 27 *
Ve
2.00001e-07
9 -5.19615242270663 14.631
0 0

0101101
*
Ed
 1e-07 1 1 0
1  9 0 -7.79422863405995 2.59807621135332
2  20 4 20 -7.79422863405995 2.59807621135332
2  21 6 5 -7.79422863405995 2.59807621135332
6  12 4 0
0

0101000
+32 28 -25 28 *
Ed
 1e-07 1 1 0
1  10 0 0 5
2  22 6 26 0 5
2  23 7 30 0 5
6  13 4 25
6  14 5 29
0

0101000
+27 0 -25 0 *
Wi

0101100
-26 8 -30 28 -24 0 +23 28 *
Fa
0  1e-07 6 5
2  4
0101000
+22 0 *
Ve
1e-07
9 5.19615242270663 19.631
0 0

0101101
*
Ed
 1e-07 1 1 0
1  11 0 0 10.3923048454133
2  24 2 9 0 10.3923048454133
2  25 7 9 0 10.3923048454133
2  26 7 11 0 10.3923048454133
6  15 5 12
0

0101000
+20 31 -27 31 *
Ve
2.00001e-07
9 5.19615242270663 14.631
0 0

0101101
*
Ed
 1e-07 1 1 0
1  12 0 -7.79422863405995 2.59807621135332
2  27 4 20 -7.79422863405995 2.59807621135332
2  28 7 5 -7.79422863405995 2.59807621135332
6  16 5 0
0

0101000
+25 32 -18 32 *
Ed
 1e-07 1 1 0
1  13 0 0 5
2  29 7 30 0 5
2  30 8 34 0 5
6  17 5 29
6  18 6 33
0

0101000
+20 0 -18 0 *
Wi

0101100
-19 8 -23 32 -17 0 +16 32 *
Fa
0  1e-07 7 5
2  5
0101000
+15 0 *
Ve
1e-07
-4e-15 10.3923048454133 19.631
0 0

0101101
*
Ed
 1e-07 1 1 0
1  14 0 0 10.3923048454133
2  31 8 9 0 10.3923048454133
2  32 8 11 0 10.3923048454133
2  33 2 9 0 10.3923048454133
6  19 6 12
0

0101000
+13 35 -20 35 *
Ve
2.00001e-07
-4e-15 10.3923048454133 14.631
0 0

0101101
*
Ed
 1e-07 1 1 0
1  15 0 -7.79422863405995 2.59807621135332
2  34 4 20 -7.79422863405995 2.59807621135332
2  35 8 5 -7.79422863405995 2.59807621135332
6  20 6 0
0

0101000
+18 36 -11 36 *
Ed
 1e-07 1 1 0
1  16 0 0 5
2  36 8 34 0 5
2  37 3 17 0 5
6  21 6 33
6  22 2 16
0

0101000
+13 0 -11 0 *
Wi

0101100
-12 8 -16 36 -10 0 +9 36 *
Fa
0  1e-07 8 5
2  6
0101000
+8 0 *
Ed
 1e-07 1 1 0
1  17 0 0 10.3923048454133
2  38 3 9 0 10.3923048454133
2  39 3 11 0 10.3923048454133
2  40 2 9 0 10.3923048454133
6  23 2 12
0

0101000
+43 37 -13 37 *
Ed
 1e-07 1 1 0
1  18 0 -7.79422863405995 2.59807621135332
2  41 4 20 -7.79422863405995 2.59807621135332
2  42 3 5 -7.79422863405995 2.59807621135332
6  24 2 0
0

0101000
+11 38 -41 38 *
Wi

0101100
-6 8 -9 38 -5 0 +40 38 *
Fa
0  1e-07 3 5
2  2
0101000
+4 0 *
Sh

0101000
-35 2 -28 21 -21 25 -14 29 -7 33 -3 16 *
Co

1100000
+2 1 *

+1 0 