DBRep_DrawableShape

CASCADE Topology V1, (c) Matra-Datavision
Locations 0
Curve2ds 56
1 0 17.088007490635061 1 0 
1 6.2831853071795862 -0 0 1 
1 0 -0 0 1 
1 0 0 1 0 
2 0 0 1 0 -0 1 6
1 0 84 1 0 
2 0 0 1 0 -0 1 2
2 0 0 1 0 -0 1 1.999999999999996
1 6.2831853071795862 -0 0 1 
1 0 -0 0 1 
1 0 0 1 0 
2 0 0 1 0 -0 1 2
7 0 0  8 9 2  3.1415926535897931 2.0000000000000036  3.3379421944391554 2.0000000000000036  3.5342917352891163 1.9118784480268687  3.7306412761281535 1.7356360926828529  3.9269908169917471 1.4785175011511456  4.1233403578316938 1.1550265224232135  4.3196898986880115 0.78539825663506235  4.5160394395353274 0.39269908169872414  4.7123889803846897 0 
 0 9 1.5707963267948966 9
7 0 0  8 9 2  6.2831853071795862 2.0000000000000036  6.0868357663302239 2.0000000000000036  5.8904862254809345 1.9118784480268687  5.6941366846342802 1.7356360926828529  5.4977871437806911 1.4785175011511456  5.3014376029366517 1.1550265224232135  5.1050880620840857 0.78539825663506235  4.908738521234052 0.39269908169872425  4.7123889803846897 0 
 0 9 1.5707963267948966 9
7 0 0  8 9 2  1.5707959883084595 -6.7697287420287466e-07  1.7671455714686262 0.39269848934743662  1.9634951546261163 0.78539777873493222  2.1598447377891716 1.1550261738775589  2.3561943209442688 1.4785172795354811  2.55254390411028 1.7356359787409019  2.7488934872671962 1.9118784100494395  2.9452430704296262 2.0000000000000036  3.1415926535897931 2.0000000000000036 
 4.7123886418982526 9 6.2831853071795862 9
7 0 0  8 9 2  1.5707966652813337 -6.7697287420287466e-07  1.374447082121167 0.39269848934743684  1.1780974989612787 0.78539777873402272  0.9817479157991329 1.1550261738830159  0.78539833264039771 1.4785172795282051  0.58904874947711505 1.7356359787445399  0.39269916632076729 1.91187841004853  0.19634958316016696 2.0000000000000036  2.449293598294702e-16 2.0000000000000036 
 4.7123886418982526 9 6.2831853071795862 9
7 0 0  8 9 2  1.5707963267948966 2  1.7671458650676308 2  1.9634954033394934 1.9118784503397137  2.1598449416096628 1.735636099614112  2.3561944798912009 1.4785175146507754  2.5525440181590966 1.1550265436462723  2.7488935564319945 0.78539828573957493  2.9452430947040362 0.39269911777151673  3.1415926329767707 4.1226048352882572e-08 
 0 9 1.5707963061818739 9
7 0 0  8 9 2  2.3561944901923448 2.0000000000000004  2.1598449519196108 2.0000000000000004  1.9634954136474789 1.9118784503398274  1.7671458753757179 1.7356360996186595  1.5707963370969082 1.47851751464259  1.3744467988262841 1.1550265436499103  1.1780972605552051 0.78539828573866544  0.98174772228320573 0.39269911777151384  0.78539818401047146 4.1226045366722788e-08 
 0 9 1.5707963061818739 9
7 0 0  8 9 2  -3.1684976065093906e-07 -6.3369952130187812e-07  0.19634926360582128 0.39269852721162318  0.39269884406076017 0.78539780928304026  0.58904842451920558 1.1550261961610886  0.78539800496855605 1.4785172936917661  0.98174758542882046 1.7356359860277735  1.1780971658831731 1.9118784124771082  1.3744467463393146 1.9999999999999998  1.5707963267948966 2 
 4.712388663534929 9 6.2831853071795862 9
7 0 0  8 9 2  3.926991133837002 -6.3369952166926162e-07  3.7306415533814201 0.39269852721162296  3.5342919729264395 0.78539780928190339  3.3379423924634466 1.1550261961656361  3.1415928120131866 1.4785172936908566  2.9452432315501937 1.7356359860314114  2.748893651104936 1.911878412475744  2.5525440706479268 2.0000000000000004  2.3561944901923448 2.0000000000000004 
 4.712388663534929 9 6.2831853071795862 9
8 -2.4492935982947064e-16 2
1 0 0 0 -1 
8 -2.4492935982947064e-16 2
1 0 0 0 -1 
8 -2 2
1 0 0 -1 0 
8 -2 2
1 0 0 0.70710678118654757 0.70710678118654757 
1 6.2831853071795862 -0 0 1 
1 0 -0 0 1 
1 0 0 1 0 
2 0 0 1 0 -0 1 2
7 0 0  6 7 2  5.4977868269545924 -6.3365509143199443e-07  5.628686573658757 0.26179885975322431  5.7595863203631552 0.5235979714342136  5.8904860670663766 0.77732504167020977  6.0213858137714737 1.0148949271200749  6.1522855604754145 1.2290933652728511  6.2831853071795791 1.4142135623730847 
 4.7123886635571441 7 5.4977871437821308 7
7 0 0  6 7 2  3.1415929704173386 -6.3365509106461104e-07  3.010693223713174 0.26179885975322476  2.8797934770089739 0.52359797143422782  2.7488937303047578 0.77732504167015293  2.617993983600627 1.0148949271201033  2.4870942368965174 1.2290933652728515  2.3561944901923528 1.4142135623730852 
 4.7123886635571441 7 5.4977871437821308 7
7 0 0  6 7 2  -7.1054273576010019e-15 1.4142135623730847  0.13089969389956835 1.5993336847963531  0.2617993877991367 1.7553750313583265  0.39269908169872281 1.8766293520764066  0.5235987755982876 1.9588767955549429  0.65449846949787283 2  0.78539816339744828 2 
 5.4977871437821308 7 6.2831853071795862 7
7 0 0  6 7 2  2.3561944901923528 1.4142135623730852  2.2252947962927769 1.5993336847963535  2.0943951023932641 1.7553750313582412  1.9634954084934577 1.8766293520765771  1.8325957145940777 1.9588767955548576  1.7016960206944725 2  1.5707963267948966 2 
 5.4977871437821308 7 6.2831853071795862 7
7 0 0  8 9 2  0.7853981633974485 2  0.98174770166859848 2  1.1780972399365055 1.9118784503408506  1.3744467782153151 1.7356360996227522  1.5707963164722969 1.4785175146489564  1.767145854757473 1.1550265436635527  1.9634953930208212 0.78539828575662796  2.1598449312954977 0.39269911779369415  2.3561944695666477 4.1251394422910233e-08 
 0 9 1.5707963061691994 9
7 0 0  8 9 2  1.5707963267948966 2  1.3744467885237466 2  1.1780972502526765 1.9118784503399411  0.98174771198000599 1.735636099626845  0.78539817371165555 1.4785175146471374  0.58904863543602914 1.1550265436635527  0.39269909716836082 0.78539828575549109  0.19634955889684713 0.39269911779369682  2.0625697211455113e-08 4.1251396964980813e-08 
 0 9 1.5707963061691994 9
1 0 284 1 0 
2 0 0 1 0 -0 1 2
2 0 0 1 0 -0 1 2.000000000000016
1 0 0 1 0 
2 0 0 1 0 -0 1 2
1 6.2831853071795862 -0 0 1 
1 0 -0 0 1 
1 0 84 1 0 
2 0 0 1 0 -0 1 2
2 0 0 1 0 -0 1 2
8 -2 2
1 0 0 -0.70710678118654757 0.70710678118654757 
8 -2 2
1 0 0 1 0 
1 0 0 1 0 
2 0 0 1 0 -0 1 6
1 0 0 1 0 
2 0 0 1 0 -0 1 6
1 0 17.088007490635061 1 0 
1 6.2831853071795862 -0 0 1 
1 0 -0 0 1 
1 0 17.088007490635061 1 0 
1 6.2831853071795862 -0 0 1 
1 0 -0 0 1 
Curves 25
1 63.639610306789272 85.154328932550698 1.4695761589768218e-15 0.41380294430118392 0.91036647746260468 -8.6000439769365322e-17 
2 59.396969619669996 89.396969619669989 0 0.70710678118654757 0.70710678118654757 0 0.70710678118654757 -0.70710678118654757 0 0 0 -1 6
2 59.396969619669996 89.396969619669989 0 0.70710678118654757 0.70710678118654757 0 0.70710678118654757 -0.70710678118654757 0 0 0 -1 2
1 1.4142135623730951 28.585786437626904 4.8985871965894217e-16 0.70710678118654757 0.70710678118654757 0 
2 0 30 0 0.70710678118654757 0.70710678118654757 0 0.70710678118654757 -0.70710678118654757 0 0 0 -1 2
3 0 30 0 1 7.8504622934188758e-17 0 -7.8504622934188758e-17 1 0 0 -0 1 2.8284271247461903 2
3 0 30 0 1 7.8504622934188758e-17 0 -7.8504622934188758e-17 1 0 0 -0 1 2.8284271247461903 2
3 0 30 0 0.5 0.5 0.70710678118654746 0.5 0.5 -0.70710678118654757 -0.70710678118654757 0.70710678118654757 0 2.8284271247461903 2
3 0 30 0 0.5 0.5 0.70710678118654746 0.5 0.5 -0.70710678118654757 -0.70710678118654757 0.70710678118654757 0 2.8284271247461903 2
1 0 30 0 0 -0 1 
1 0 30 0 -0.70710678118654757 0.70710678118654757 0 
1 1.4142135623730951 31.414213562373096 4.8985871965894059e-16 -0.70710678118654757 0.70710678118654757 0 
2 0 30 0 -0.70710678118654746 0.70710678118654746 0 0.70710678118654757 0.70710678118654757 0 0 0 -1 2
3 0 30 0 0.5 -0.5 -0.70710678118654757 -0.5 0.5 -0.70710678118654746 0.70710678118654757 0.70710678118654757 0 2.8284271247461903 2
3 0 30 0 0.5 -0.5 -0.70710678118654757 -0.5 0.5 -0.70710678118654746 0.70710678118654757 0.70710678118654757 0 2.8284271247461903 2
3 0 30 0 0.5 -0.5 -0.70710678118654757 -0.5 0.5 -0.70710678118654746 0.70710678118654757 0.70710678118654757 0 2.8284271247461903 2
2 -200.81832585697947 230.81832585697947 0 -0.70710678118654746 0.70710678118654746 0 0.70710678118654757 0.70710678118654757 0 0 0 -1 2
2 0 30 0 0 0 -1 -1 0 -0 0 1 0 2
1 -2 30 0 0 0 -1 
2 0 30 -84 0 0 -1 -1 0 -0 0 1 0 2
1 0 30 0 0.70710678118654757 0.70710678118654757 0 
2 -200.81832585697947 230.81832585697947 0 -0.70710678118654746 0.70710678118654746 0 0.70710678118654757 0.70710678118654757 0 0 0 -1 6
2 0 30 -84 0 0 -1 -1 0 -0 0 1 0 6
1 -196.57568516986018 235.06096654409876 1.4695761589768281e-15 -0.9103664774626048 0.41380294430118397 -8.6000439769365334e-17 
1 -6 30 -84 0.3511234415883917 8.6000439769365309e-17 -0.93632917756904455 
Polygon3D 0
PolygonOnTriangulations 0
Surfaces 15
3 59.396969619669996 89.396969619669989 0 0.70710678118654757 0.70710678118654757 0 0.70710678118654757 -0.70710678118654757 0 0 0 -1 6
-0.35877067027057225
1 59.396969619669996 89.396969619669989 0 0.70710678118654757 0.70710678118654757 0 0.70710678118654757 -0.70710678118654757 0 0 0 -1 
2 0 30 0 0.70710678118654757 0.70710678118654757 0 0.70710678118654757 -0.70710678118654757 0 0 0 -1 2
1 59.396969619669996 89.396969619669989 0 0.70710678118654757 0.70710678118654757 0 0.70710678118654757 -0.70710678118654757 0 0 0 -1 
1 0 30 0 0.70710678118654757 0.70710678118654757 0 0.70710678118654757 -0.70710678118654757 0 0 0 -1 
2 0 30 0 -0.70710678118654746 0.70710678118654746 0 0.70710678118654757 0.70710678118654757 0 0 0 -1 2
2 0 30 0 0 0 -1 -1 0 -0 0 1 0 2
1 0 30 0 -0.70710678118654746 0.70710678118654746 0 0.70710678118654757 0.70710678118654757 0 0 0 -1 
1 0 30 0 0 0 -1 -1 0 -0 0 1 0 
1 -200.81832585697947 230.81832585697947 0 -0.70710678118654746 0.70710678118654746 0 0.70710678118654757 0.70710678118654757 0 0 0 -1 
1 -200.81832585697947 230.81832585697947 0 -0.70710678118654746 0.70710678118654746 0 0.70710678118654757 0.70710678118654757 0 0 0 -1 
1 0 30 -84 0 0 -1 -1 0 -0 0 1 0 
1 0 30 -84 0 0 -1 -1 0 -0 0 1 0 
3 -200.81832585697947 230.81832585697947 0 -0.70710678118654746 0.70710678118654746 0 0.70710678118654757 0.70710678118654757 0 0 0 -1 6
-0.35877067027057225
3 0 30 -84 0 0 -1 -1 0 -0 0 1 0 6
-0.35877067027057225
Triangulations 0

TShapes 76
Ve
1e-07
70.7106781186548 100.710678118655 0
0 0

0101101
*
Ed
 1e-07 1 1 1
2  1 1 0 0 6.28318530717959
0

0101000
+76 0 -76 0 *
Ve
1e-07
63.6396103067893 85.1543289325507 1.46957615897682e-15
0 0

0101101
*
Ed
 1e-07 1 1 0
1  1 0 0 17.0880074906351
3  2 3CN 1 0 0 17.0880074906351
0

0101000
-76 0 +74 0 *
Ed
 1e-07 1 1 0
1  2 0 0 6.28318530717959
2  4 1 0 0 6.28318530717959
2  5 2 0 0 6.28318530717959
0

0101000
+74 0 -74 0 *
Wi

0101100
-75 0 +73 0 +72 0 -73 0 *
Fa
0  1e-07 1 0

0111000
+71 0 *
Wi

0101100
+72 0 *
Ve
1.00000007105427e-07
60.8111831820431 87.9827560572969 4.89858719658942e-16
0 0

0101101
*
Ed
 1.00000007105427e-07 1 1 0
1  3 0 0 6.28318530717959
2  6 3 0 0 6.28318530717959
2  7 4 0 0 6.28318530717959
2  8 2 0 0 6.28318530717959
0

0101000
+68 0 -68 0 *
Wi

0101100
-67 0 *
Fa
0  1e-07 2 0

0111000
+69 0 +66 0 *
Ve
1.50000000489859e-07
1.4142135623731 28.5857864376269 4.89858719658942e-16
0 0

0101101
*
Ed
 1e-07 1 1 0
1  4 0 0 84
3  9 10CN 3 0 0 84
0

0101000
-68 0 +64 0 *
Ve
1.50000004993084e-07
3.50843508397041e-15 30 2
0 0

0101101
*
Ed
 1e-07 1 1 0
1  5 0 4.71238898038469 6.28318530717959
2  11 3 0 4.71238898038469 6.28318530717959
2  12 5 0 4.71238898038469 6.28318530717959
0

0101000
+62 0 -64 0 *
Ve
1.00000002225636e-07
1.77635683940025e-15 32.8284271247462 4.89858719658941e-16
0 0

0101101
*
Ed
 1e-07 1 1 0
1  6 0 0 1.5707963267949
2  13 3 0 0 1.5707963267949
2  14 6 0 0 1.5707963267949
0

0101000
+60 0 -62 0 *
Ve
1.00000001302873e-07
-1.11022302462516e-15 32 -1.41421356237309
0 0

0101101
*
Ed
 1e-07 1 1 0
1  7 0 5.49778714378214 6.28318530717959
2  15 3 0 5.49778714378214 6.28318530717959
2  16 6 0 5.49778714378214 6.28318530717959
0

0101000
+58 0 -60 0 *
Ve
1.00000000222045e-07
1.4142135623731 31.4142135623731 -2
0 0

0101101
*
Ed
 1e-07 1 1 0
1  8 0 0 0.785398163397449
2  17 3 0 0 0.785398163397449
2  18 7 0 0 0.785398163397449
0

0101000
+56 0 -58 0 *
Ed
 1e-07 1 1 0
1  9 0 4.71238898038469 6.28318530717959
2  19 3 0 4.71238898038469 6.28318530717959
2  20 7 0 4.71238898038469 6.28318530717959
0

0101000
+64 0 -56 0 *
Wi

0101100
-67 0 +63 0 +61 0 +59 0 +57 0 +55 0 +54 0 -63 0 *
Fa
0  1e-07 3 0

0111000
+53 0 *
Ve
1.50000000244929e-07
0 30 0
0 0

0101101
*
Ed
 1.5e-07 1 1 0
1  10 0 -2.44929359829471e-16 2
2  21 5 0 -2.44929359829471e-16 2
2  22 8 0 -2.44929359829471e-16 2
0

0101000
+51 0 -62 0 *
Ed
 1.5e-07 1 1 0
1  11 0 -2 0
2  23 5 0 -2 0
2  24 9 0 -2 0
0

0101000
+64 0 -51 0 *
Wi

0101100
+50 0 +49 0 +61 0 *
Fa
0  1e-07 5 0

0111000
+48 0 *
Ve
1e-07
-199.404112294606 232.232539419353 4.89858719658945e-16
0 0

0101101
*
Ed
 1e-07 1 1 0
1  12 0 2 284
3  25 26CN 6 0 2 284
0

0101000
+60 0 -46 0 *
Ve
1.50000080702077e-07
-1.41421356237309 28.5857864376269 8.07017715127967e-14
0 0

0101101
*
Ed
 1e-07 1 1 0
1  13 0 3.14159265358979 4.71238898038469
2  27 6 0 3.14159265358979 4.71238898038469
2  28 8 0 3.14159265358979 4.71238898038469
0

0101000
+44 0 -62 0 *
Ve
1.00000032973437e-07
-2 30 -1.41421356237305
0 0

0101101
*
Ed
 1e-07 1 1 0
1  14 0 4.71238898038469 5.49778714378213
2  29 7 0 4.71238898038469 5.49778714378213
2  30 6 0 4.71238898038469 5.49778714378213
0

0101000
+44 0 -42 0 *
Ve
1.00000000222045e-07
-1.4142135623731 31.4142135623731 -2
0 0

0101101
*
Ed
 1e-07 1 1 0
1  15 0 5.49778714378213 6.28318530717959
2  31 7 0 5.49778714378213 6.28318530717959
2  32 6 0 5.49778714378213 6.28318530717959
0

0101000
+42 0 -40 0 *
Ed
 1e-07 1 1 0
1  16 0 0 0.785398163397448
2  33 7 0 0 0.785398163397448
2  34 6 0 0 0.785398163397448
0

0101000
+40 0 -58 0 *
Ed
 1e-07 1 1 0
1  17 0 0 6.28318530717959
2  35 6 0 0 6.28318530717959
2  36 10 0 0 6.28318530717959
2  37 11 0 0 6.28318530717959
0

0101000
+46 0 -46 0 *
Wi

0101100
+45 0 -59 0 +43 0 -41 0 -39 0 -38 0 -57 0 -45 0 -37 0 *
Fa
0  1e-07 6 0

0111000
+36 0 *
Ed
 1e-07 1 1 0
1  18 0 3.92699081698724 5.49778714378214
2  38 7 0 3.92699081698724 5.49778714378214
2  39 9 0 3.92699081698724 5.49778714378214
0

0101000
+64 0 -44 0 *
Ve
1e-07
-2 30 -84
0 0

0101101
*
Ed
 1e-07 1 1 0
1  19 0 1.41421356237305 84
3  40 41CN 7 0 1.41421356237305 84
0

0101000
+42 0 -33 0 *
Ed
 1e-07 1 1 0
1  20 0 0 6.28318530717959
2  42 7 0 0 6.28318530717959
2  43 12 0 0 6.28318530717959
2  44 13 0 0 6.28318530717959
0

0101000
+33 0 -33 0 *
Wi

0101100
+41 0 +34 0 -54 0 -55 0 +38 0 +39 0 -32 0 -31 0 +32 0 *
Fa
0  1e-07 7 0

0111000
+30 0 *
Ed
 1.5e-07 1 1 0
1  21 0 -2 0
2  45 9 0 -2 0
2  46 8 0 -2 0
0

0101000
+44 0 -51 0 *
Wi

0101100
-28 0 -50 0 +43 0 *
Fa
0  1e-07 8 0

0111000
+27 0 *
Wi

0101100
-49 0 +28 0 +34 0 *
Fa
0  1e-07 9 0

0111000
+25 0 *
Ve
1e-07
-196.57568516986 235.060966544099 1.46957615897683e-15
0 0

0101101
*
Ed
 1e-07 1 1 0
1  22 0 0 6.28318530717959
2  47 14 0 0 6.28318530717959
2  48 11 0 0 6.28318530717959
0

0101000
+23 0 -23 0 *
Wi

0101100
+22 0 *
Wi

0101100
-37 0 *
Fa
0  1e-07 11 0

0111000
+21 0 +20 0 *
Ve
1e-07
-6 30 -84
0 0

0101101
*
Ed
 1e-07 1 1 0
1  23 0 0 6.28318530717959
2  49 15 0 0 6.28318530717959
2  50 13 0 0 6.28318530717959
0

0101000
+18 0 -18 0 *
Wi

0101100
+17 0 *
Wi

0101100
-31 0 *
Fa
0  1e-07 13 0

0111000
+16 0 +15 0 *
Ve
1e-07
-212.132034355964 242.132034355964 6.31088724176809e-30
0 0

0101101
*
Ed
 1e-07 1 1 1
2  51 14 0 0 6.28318530717959
0

0101000
+13 0 -13 0 *
Ed
 1e-07 1 1 0
1  24 0 0 17.0880074906351
3  52 53CN 14 0 0 17.0880074906351
0

0101000
-13 0 +23 0 *
Wi

0101100
-12 0 +11 0 +22 0 -11 0 *
Fa
0  1e-07 14 0

0111000
+10 0 *
Ve
1e-07
0 30 -100
0 0

0101101
*
Ed
 1e-07 1 1 1
2  54 15 0 0 6.28318530717959
0

0101000
+8 0 -8 0 *
Ed
 1e-07 1 1 0
1  25 0 0 17.0880074906351
3  55 56CN 15 0 0 17.0880074906351
0

0101000
-8 0 +18 0 *
Wi

0101100
-7 0 +6 0 +17 0 -6 0 *
Fa
0  1e-07 15 0

0111000
+5 0 *
Sh

0101100
+70 0 -65 0 +52 0 -47 0 +35 0 +29 0 -26 0 -24 0 -19 0 -14 0 
+9 0 +4 0 *
So

0100000
+3 0 *
Co

1100000
+2 0 *

+1 0 